#!OML:ASF H:\BreakDance\Project 1\Capture day 1\Session 1\Male.ASF
:FULLY-SPECIFIED
:DEGREES
971
root -10.6345 17.8854 1.97399 -153.311 -77.5892 336.861
lowerback -9.9494 -1.9808 -2.23714
upperback -7.34817 -2.26474 -2.0242
thorax -2.06845 -0.987743 -1.02539
lowerneck -19.3622 -1.84588 -4.98095
upperneck -23.5653 -2.37513 -0.396954
head -4.2063 -1.34646 0.701444
rclavicle 1.32968e-013 4.01669e-014
rhumerus 116.962 -39.6192 -70.7634
rradius 21.2162
rwrist 16.6097
rhand -43.8217 -44.6037
rfingers 7.12502
rthumb -16.6496 -73.9096
lclavicle 1.32968e-013 4.01669e-014
lhumerus 106.919 41.0963 62.2371
lradius 19.2538
lwrist -8.74208
lhand -60.587 -75.6177
lfingers 7.12502
lthumb -32.7105 -48.5568
rfemur 36.4171 -1.31789 1.55098
rtibia 47.8097
rfoot 50.8554 9.83421
rtoes 3.73503
lfemur -28.6971 7.15751 8.24793
ltibia 39.0322
lfoot -4.12553 39.0316
ltoes 18.2977
972
root -10.6496 17.7047 2.01721 -153.906 -77.4945 337.974
lowerback -10.8127 -1.92955 -1.77953
upperback -7.4512 -2.19893 -1.97161
thorax -1.7221 -0.968195 -1.2475
lowerneck -19.2868 -1.83637 -4.87283
upperneck -23.0855 -2.38748 -0.521786
head -4.06325 -1.34919 0.637657
rclavicle -9.93155e-014 -4.15056e-014
rhumerus 116.886 -38.697 -71.7727
rradius 21.4921
rwrist 17.3166
rhand -44.609 -47.0656
rfingers 7.12502
rthumb -17.4074 -76.3061
lclavicle -9.93155e-014 -4.15056e-014
lhumerus 107.578 39.8288 64.4732
lradius 20.0348
lwrist -10.1707
lhand -60.7143 -82.9411
lfingers 7.12502
lthumb -32.8316 -55.9055
rfemur 37.0804 -1.00739 1.05503
rtibia 47.6494
rfoot 51.3914 10.4386
rtoes 1.44723
lfemur -29.5428 4.62725 9.35056
ltibia 37.3349
lfoot -2.35145 40.3561
ltoes 18.0759
973
root -10.6644 17.5302 2.05354 -154.406 -77.4537 339.061
lowerback -11.7986 -1.89734 -1.39968
upperback -7.60324 -2.15372 -1.93955
thorax -1.362 -0.9532 -1.45202
lowerneck -19.7624 -1.83571 -4.64466
upperneck -21.6688 -2.39127 -0.683542
head -4.00031 -1.36523 0.534235
rclavicle -1.84923e-013 -4.10801e-014
rhumerus 114.219 -39.1326 -70.2906
rradius 23.736
rwrist 14.4361
rhand -45.7896 -48.4902
rfingers 7.12502
rthumb -18.5433 -77.6264
lclavicle -1.84923e-013 -4.10801e-014
lhumerus 105.335 39.642 63.5111
lradius 22.629
lwrist -8.50956
lhand -59.9871 -84.8521
lfingers 7.12502
lthumb -32.1396 -57.6742
rfemur 37.6784 -0.71793 0.688066
rtibia 47.5909
rfoot 51.7206 11.6053
rtoes -2.43176
lfemur -30.5712 2.6951 10.4949
ltibia 35.789
lfoot 0.923472 41.7639
ltoes 17.5742
974
root -10.6811 17.3671 2.08317 -154.179 -77.3909 339.413
lowerback -12.7406 -1.87917 -1.29249
upperback -7.77437 -2.108 -1.97405
thorax -1.04198 -0.929242 -1.57068
lowerneck -19.8559 -1.82348 -4.2387
upperneck -20.8352 -2.44658 -0.899535
head -3.66794 -1.415 0.379195
rclavicle 1.72371e-013 3.82909e-014
rhumerus 109.93 -40.4663 -67.0911
rradius 27.1326
rwrist 9.42369
rhand -47.1578 -48.4058
rfingers 7.12502
rthumb -19.859 -77.4111
lclavicle 1.72371e-013 3.82909e-014
lhumerus 101.183 40.1739 60.2555
lradius 26.2806
lwrist -5.03769
lhand -58.9957 -84.1344
lfingers 7.12502
lthumb -31.1952 -56.7703
rfemur 38.3145 -0.42595 0.252066
rtibia 47.6063
rfoot 51.8488 13.3061
rtoes -7.66333
lfemur -31.7361 1.48843 11.4063
ltibia 34.4014
lfoot 5.75143 42.9522
ltoes 16.593
975
root -10.7006 17.2183 2.10719 -153.048 -77.2652 338.77
lowerback -13.4811 -1.86389 -1.5255
upperback -7.92422 -2.03945 -2.0755
thorax -0.800395 -0.886523 -1.55868
lowerneck -20.0691 -1.85593 -3.81629
upperneck -20.0735 -2.57269 -1.12561
head -3.35242 -1.50838 0.217789
rclavicle -4.29748e-014 7.55382e-015
rhumerus 105.138 -42.1494 -63.0699
rradius 30.5006
rwrist 4.27046
rhand -48.4686 -48.0082
rfingers 7.12502
rthumb -21.1186 -76.8781
lclavicle -4.29748e-014 7.55382e-015
lhumerus 96.5479 40.8655 56.0746
lradius 29.7976
lwrist -1.38705
lhand -58.3183 -83.3244
lfingers 7.12502
lthumb -30.5495 -55.838
rfemur 39.0723 -0.0927399 -0.330338
rtibia 47.6675
rfoot 51.8012 15.4003
rtoes -13.6266
lfemur -32.963 0.994967 11.9358
ltibia 33.1706
lfoot 11.8194 43.5576
ltoes 15.1972
976
root -10.7231 17.0853 2.12801 -151.288 -77.0675 337.365
lowerback -13.9444 -1.83973 -2.02107
upperback -8.02386 -1.94021 -2.21648
thorax -0.648011 -0.825068 -1.42775
lowerneck -20.2957 -1.93555 -3.49066
upperneck -19.6287 -2.76008 -1.31898
head -3.15777 -1.63298 0.0861531
rclavicle -1.88721e-014 7.10655e-015
rhumerus 100.587 -43.9201 -58.6666
rradius 32.8409
rwrist 0.0530631
rhand -49.2291 -48.3258
rfingers 7.12502
rthumb -21.8491 -77.1123
lclavicle -1.88721e-014 7.10655e-015
lhumerus 92.1413 41.566 51.5309
lradius 32.3863
lwrist 1.88751
lhand -58.1277 -83.5032
lfingers 7.12502
lthumb -30.3677 -55.9831
rfemur 39.9872 0.310614 -1.02205
rtibia 47.7506
rfoot 51.6215 17.6881
rtoes -19.4134
lfemur -34.1898 1.06313 12.1026
ltibia 32.0933
lfoot 18.4364 43.3736
ltoes 13.6649
977
root -10.7477 16.9683 2.14867 -149.542 -76.833 335.84
lowerback -14.1512 -1.80342 -2.57489
upperback -8.05995 -1.82848 -2.34014
thorax -0.564422 -0.758622 -1.23686
lowerneck -20.3861 -2.03981 -3.35539
upperneck -19.6556 -2.96112 -1.43342
head -3.15718 -1.75518 0.0187315
rclavicle 1.57363e-013 1.46107e-014
rhumerus 96.3817 -45.6133 -54.049
rradius 34.1592
rwrist -3.12953
rhand -49.5629 -49.7445
rfingers 7.12502
rthumb -22.1695 -78.4933
lclavicle 1.57363e-013 1.46107e-014
lhumerus 88.1028 42.2363 46.9515
lradius 34.0885
lwrist 4.67794
lhand -58.3409 -84.8412
lfingers 7.12502
lthumb -30.571 -57.3588
rfemur 41.0394 0.806175 -1.67501
rtibia 47.8495
rfoot 51.4584 19.7055
rtoes -23.8488
lfemur -35.3674 1.45795 12.0985
ltibia 31.1599
lfoot 24.8173 42.4798
ltoes 12.3347
978
root -10.7724 16.8655 2.17137 -148.344 -76.6086 334.758
lowerback -14.2149 -1.75355 -2.98887
upperback -8.0333 -1.72098 -2.40622
thorax -0.494092 -0.699387 -1.06119
lowerneck -20.2601 -2.13765 -3.43568
upperneck -20.1157 -3.12053 -1.44185
head -3.34629 -1.8404 0.0312593
rclavicle 2.38542e-014 -8.05078e-015
rhumerus 92.6266 -46.9672 -49.7554
rradius 35.0077
rwrist -5.35929
rhand -49.5498 -51.7546
rfingers 7.12502
rthumb -22.157 -80.5048
lclavicle 2.38542e-014 -8.05078e-015
lhumerus 84.494 42.7933 42.7249
lradius 35.2295
lwrist 7.02534
lhand -58.6705 -86.6499
lfingers 7.12502
lthumb -30.8853 -59.2267
rfemur 42.1667 1.40228 -2.14131
rtibia 47.9733
rfoot 51.4319 21.1425
rtoes -26.5253
lfemur -36.4666 1.92572 12.1564
ltibia 30.3521
lfoot 30.4242 41.2139
ltoes 11.5214
979
root -10.7951 16.7736 2.19673 -147.901 -76.4266 334.372
lowerback -14.2367 -1.69629 -3.16607
upperback -7.96622 -1.63169 -2.39944
thorax -0.407513 -0.655342 -0.943784
lowerneck -19.9406 -2.20318 -3.69088
upperneck -20.8059 -3.19868 -1.35115
head -3.65027 -1.86668 0.114553
rclavicle 7.688e-014 4.82053e-015
rhumerus 89.7731 -47.767 -46.6151
rradius 35.7627
rwrist -6.6813
rhand -49.4249 -53.6184
rfingers 7.12502
rthumb -22.037 -82.3828
lclavicle 7.688e-014 4.82053e-015
lhumerus 81.3707 43.1866 39.1569
lradius 36.139
lwrist 8.9616
lhand -58.8886 -88.3229
lfingers 7.12502
lthumb -31.0932 -60.9392
rfemur 43.2955 2.08639 -2.33145
rtibia 48.1403
rfoot 51.516 22.2438
rtoes -28.2252
lfemur -37.4705 2.25822 12.4459
ltibia 29.6357
lfoot 35.1317 40.0042
ltoes 11.3213
980
root -10.816 16.6911 2.22441 -148.093 -76.2776 334.586
lowerback -14.2762 -1.6355 -3.12815
upperback -7.87194 -1.55953 -2.35204
thorax -0.286513 -0.625229 -0.907469
lowerneck -19.5428 -2.22544 -4.01606
upperneck -21.4763 -3.18821 -1.18779
head -3.96196 -1.8366 0.238549
rclavicle -3.32467e-014 -1.57537e-014
rhumerus 88.1102 -48.0391 -45.0836
rradius 36.5708
rwrist -7.25253
rhand -49.384 -54.8768
rfingers 7.12502
rthumb -21.9978 -83.6459
lclavicle -3.32467e-014 -1.57537e-014
lhumerus 79.0093 43.3887 36.6654
lradius 36.9892
lwrist 10.3101
lhand -58.9181 -89.4728
lfingers 7.12502
lthumb -31.1213 -62.0945
rfemur 44.3736 2.83166 -2.28716
rtibia 48.3697
rfoot 51.713 22.959
rtoes -29.1778
lfemur -38.369 2.32022 13.0213
ltibia 28.9689
lfoot 38.8893 39.1959
ltoes 11.6576
981
root -10.8362 16.6168 2.25338 -148.694 -76.1293 335.176
lowerback -14.2561 -1.57383 -2.96437
upperback -7.79987 -1.50385 -2.28579
thorax -0.222629 -0.60505 -0.922598
lowerneck -19.2155 -2.20336 -4.29989
upperneck -21.8892 -3.10613 -1.03917
head -4.16851 -1.76762 0.348752
rclavicle 8.87263e-014 5.86166e-014
rhumerus 87.4645 -47.8846 -45.0128
rradius 37.5604
rwrist -7.26518
rhand -49.473 -55.4807
rfingers 7.12502
rthumb -22.0832 -84.2398
lclavicle 8.87263e-014 5.86166e-014
lhumerus 77.4811 43.4124 35.4021
lradius 37.8949
lwrist 10.9561
lhand -58.8003 -89.9596
lfingers 7.12502
lthumb -31.009 -62.5598
rfemur 45.379 3.62434 -2.07973
rtibia 48.6796
rfoot 51.9935 23.2889
rtoes -29.6386
lfemur -39.1417 2.04871 13.8589
ltibia 28.3053
lfoot 41.6549 39.0744
ltoes 12.4596
